<svg version="1.1" id="Layer_1" xmlns="http://www.w3.org/2000/svg" xmlns:xlink="http://www.w3.org/1999/xlink" x="0px" y="0px"
	 width="100%" viewBox="0 0 180 180" enable-background="new 0 0 180 180" xml:space="preserve">
<path fill="#FCFCFC" opacity="1.000000" stroke="none" d=" M162.000000,1.000000 C168.323532,1.000000 174.647064,1.000000 180.977936,0.999998 C180.985291,60.897327 180.985291,120.794655 180.985291,181.000000 C153.313202,181.000000 125.625259,181.000000 97.584404,180.543884 C97.231491,174.156113 97.231491,168.224472 97.231491,161.807495 C89.741905,161.807495 82.839127,161.807495 75.045219,161.807495 C75.045219,156.384964 75.045219,151.443176 75.046844,146.335480 C75.048477,146.169571 75.081360,145.839401 75.243118,145.918808 C75.404877,145.998215 75.753189,146.090775 75.714172,146.440247 C76.113686,146.830627 76.552223,146.871506 77.450005,147.015106 C82.575500,147.124985 87.241913,147.160904 91.907967,147.133530 C103.142929,147.067627 108.901482,141.421188 108.982407,130.260132 C109.057320,119.928009 108.951729,109.594498 109.041519,99.262619 C109.061531,96.959320 109.274109,94.575966 109.909126,92.377068 C111.162010,88.038681 114.278336,84.489372 118.612907,84.547020 C122.913452,84.604218 126.049431,88.137840 127.264885,92.496262 C127.879921,94.701714 128.033920,97.090004 128.052109,99.398338 C128.136139,110.063637 127.964752,120.732201 128.147934,131.395065 C128.296371,140.036392 133.050491,146.106079 140.841263,146.816666 C147.563904,147.429810 154.386795,146.943924 161.234985,146.943924 C161.234985,141.229202 161.234985,135.832245 161.234985,129.934189 C157.453522,129.934189 154.050354,129.934189 150.354889,129.934189 C150.354889,118.114716 150.434158,106.802475 150.329376,95.491936 C150.248016,86.711143 146.090286,80.284081 138.429825,76.100883 C137.094315,75.371590 135.651016,74.839699 135.004135,74.550468 C138.746231,71.548599 143.368256,69.224251 145.836960,65.480103 C148.421555,61.560200 149.903381,56.329426 150.163956,51.578209 C150.771881,40.493446 150.357941,29.352638 150.357941,17.798298 C154.391220,17.798298 157.808762,17.798298 162.000000,17.798298 C162.000000,11.905967 162.000000,6.452983 162.000000,1.000000 z"/>
<path fill="#050505" opacity="1.000000" stroke="none" 
	d="
M75.753189,146.090775 
	C75.753189,146.090775 75.404877,145.998215 75.381447,145.481171 
	C75.358017,140.112564 75.358017,135.261017 75.358017,130.108719 
	C79.599205,130.108719 83.032242,130.108719 86.812569,129.938705 
	C87.405945,125.403877 87.725540,121.040329 87.800430,116.672577 
	C87.809296,116.155823 86.477997,115.616089 85.377930,115.112946 
	C83.034103,114.715904 80.940262,114.592499 79.174446,113.767220 
	C77.947464,113.193794 77.171448,111.655403 76.193962,110.548126 
	C77.606873,110.044128 79.021736,109.129990 80.432205,109.136726 
	C82.328079,109.145760 84.220551,109.865669 86.757011,110.421143 
	C86.270409,95.269745 84.686203,80.055504 103.701942,74.087990 
	C91.578041,69.526436 86.736481,62.635113 86.671890,50.975121 
	C86.643265,45.808743 86.664642,40.642086 86.664162,35.475555 
	C86.663620,29.711107 86.664040,23.946661 86.664040,17.967855 
	C83.966667,17.967855 81.934158,18.220667 80.000633,17.891720 
	C78.306992,17.603579 76.724503,16.662058 75.364975,15.700188 
	C75.758026,10.594144 75.879013,5.797072 76.000000,1.000000 
	C82.687645,1.000000 89.375290,1.000000 96.715942,1.304162 
	C105.183647,3.947299 108.855804,8.625556 108.956612,16.927320 
	C109.085861,27.571363 108.973778,38.218155 109.001785,48.863670 
	C109.022835,56.862347 113.618881,63.929543 118.649117,63.790096 
	C123.783287,63.647770 128.062805,56.832508 128.087967,48.666576 
	C128.115662,39.684448 128.462234,30.682993 127.994301,21.725248 
	C127.506477,12.386621 130.010727,5.088715 139.000000,1.000000 
	C146.354248,1.000000 153.708496,1.000000 161.531372,1.000000 
	C162.000000,6.452983 162.000000,11.905967 162.000000,17.798298 
	C157.808762,17.798298 154.391220,17.798298 150.357941,17.798298 
	C150.357941,29.352638 150.771881,40.493446 150.163956,51.578209 
	C149.903381,56.329426 148.421555,61.560200 145.836960,65.480103 
	C143.368256,69.224251 138.746231,71.548599 135.004135,74.550468 
	C135.651016,74.839699 137.094315,75.371590 138.429825,76.100883 
	C146.090286,80.284081 150.248016,86.711143 150.329376,95.491936 
	C150.434158,106.802475 150.354889,118.114716 150.354889,129.934189 
	C154.050354,129.934189 157.453522,129.934189 161.234985,129.934189 
	C161.234985,135.832245 161.234985,141.229202 161.234985,146.943924 
	C154.386795,146.943924 147.563904,147.429810 140.841263,146.816666 
	C133.050491,146.106079 128.296371,140.036392 128.147934,131.395065 
	C127.964752,120.732201 128.136139,110.063637 128.052109,99.398338 
	C128.033920,97.090004 127.879921,94.701714 127.264885,92.496262 
	C126.049431,88.137840 122.913452,84.604218 118.612907,84.547020 
	C114.278336,84.489372 111.162010,88.038681 109.909126,92.377068 
	C109.274109,94.575966 109.061531,96.959320 109.041519,99.262619 
	C108.951729,109.594498 109.057320,119.928009 108.982407,130.260132 
	C108.901482,141.421188 103.142929,147.067627 91.907967,147.133530 
	C87.241913,147.160904 82.575500,147.124985 77.301956,146.801392 
	C76.380836,146.353546 76.067017,146.222153 75.753189,146.090775 
z"/>
<path fill="#FCFCFC" opacity="1.000000" stroke="none" 
	d="
M75.092911,16.009159 
	C76.724503,16.662058 78.306992,17.603579 80.000633,17.891720 
	C81.934158,18.220667 83.966667,17.967855 86.664040,17.967855 
	C86.664040,23.946661 86.663620,29.711107 86.664162,35.475555 
	C86.664642,40.642086 86.643265,45.808743 86.671890,50.975121 
	C86.736481,62.635113 91.578041,69.526436 103.701942,74.087990 
	C84.686203,80.055504 86.270409,95.269745 86.757011,110.421143 
	C84.220551,109.865669 82.328079,109.145760 80.432205,109.136726 
	C79.021736,109.129990 77.606873,110.044128 76.193962,110.548126 
	C77.171448,111.655403 77.947464,113.193794 79.174446,113.767220 
	C80.940262,114.592499 83.034103,114.715904 85.616791,115.523354 
	C86.318863,120.641464 86.392075,125.375092 86.465286,130.108719 
	C83.032242,130.108719 79.599205,130.108719 75.358017,130.108719 
	C75.358017,135.261017 75.358017,140.112564 75.219688,145.401764 
	C75.081360,145.839401 75.048477,146.169571 74.649948,146.610672 
	C67.481079,147.009415 60.710747,146.967056 53.978447,146.953430 
	C54.016483,146.982162 54.073044,147.058929 54.011620,146.590942 
	C53.950191,140.881287 53.950191,135.639618 53.950191,129.923157 
	C49.679787,129.923157 46.277706,129.923157 43.012924,129.923157 
	C43.012924,92.383606 43.012924,55.354992 43.012924,17.848526 
	C46.729015,17.848526 50.139950,17.848526 54.000000,17.848526 
	C54.000000,11.916360 54.000000,6.458180 54.000000,1.000000 
	C55.066669,1.000000 56.133339,1.000000 57.760300,1.444010 
	C58.330124,6.329420 58.162910,10.783120 58.470551,15.203773 
	C58.549763,16.341986 60.123158,17.376217 61.010147,18.458216 
	C61.352894,18.166735 61.695641,17.875254 62.038387,17.583771 
	C62.358925,12.055848 62.679462,6.527924 63.000000,1.000000 
	C64.066673,1.000000 65.133339,1.000000 66.549835,1.465777 
	C66.888443,6.228500 66.748955,10.531604 66.954689,14.818136 
	C67.007233,15.912998 68.152908,16.955395 68.796349,18.021896 
	C69.466492,16.971109 70.652199,15.951137 70.717163,14.864179 
	C70.992714,10.253620 70.935593,5.623178 71.000000,1.000000 
	C71.750000,1.000000 72.500000,1.000000 73.556549,1.461735 
	C74.273033,6.618700 74.682976,11.313930 75.092911,16.009159 
M61.644730,58.603882 
	C59.811157,62.573669 60.169647,66.592033 63.874298,68.758698 
	C66.213493,70.126778 70.430496,70.705673 72.500420,69.463783 
	C74.786926,68.091949 76.840279,64.148415 76.655678,61.487255 
	C76.488647,59.079376 73.591812,56.088306 71.139175,54.797771 
	C67.705956,52.991272 64.385231,54.794186 61.644730,58.603882 
z"/>
<path fill="#FDFDFD" opacity="1.000000" stroke="none" 
	d="
M68.000000,181.000000 
	C45.701984,181.000000 23.403969,181.000000 1.054305,181.000000 
	C1.054305,121.000000 1.054305,61.000000 1.054305,1.000000 
	C10.759969,1.000000 20.411327,1.000000 30.461075,1.346470 
	C22.677626,4.642551 20.308416,10.971637 20.329292,19.041199 
	C20.419321,53.842297 20.363621,88.643768 20.372063,123.445099 
	C20.372829,126.607285 20.255468,129.786911 20.533531,132.928284 
	C21.305056,141.644424 26.853809,146.896408 35.596699,147.108597 
	C41.751453,147.257965 47.913986,147.086914 54.073044,147.058929 
	C54.073044,147.058929 54.016483,146.982162 53.938980,147.424896 
	C53.860310,150.184479 53.938881,152.504562 53.844452,154.817596 
	C53.386429,166.037308 55.894196,175.603378 67.686279,180.123596 
	C67.875084,180.195969 67.899086,180.698318 68.000000,181.000000 
z"/>
<path fill="#090909" opacity="1.000000" stroke="none" 
	d="
M54.011620,146.590942 
	C47.913986,147.086914 41.751453,147.257965 35.596699,147.108597 
	C26.853809,146.896408 21.305056,141.644424 20.533531,132.928284 
	C20.255468,129.786911 20.372829,126.607285 20.372063,123.445099 
	C20.363621,88.643768 20.419321,53.842297 20.329292,19.041199 
	C20.308416,10.971637 22.677626,4.642551 30.929733,1.346470 
	C38.354252,1.000000 45.708500,1.000000 53.531376,1.000000 
	C54.000000,6.458180 54.000000,11.916360 54.000000,17.848526 
	C50.139950,17.848526 46.729015,17.848526 43.012924,17.848526 
	C43.012924,55.354992 43.012924,92.383606 43.012924,129.923157 
	C46.277706,129.923157 49.679787,129.923157 53.950191,129.923157 
	C53.950191,135.639618 53.950191,140.881287 54.011620,146.590942 
z"/>
<path fill="#FAFAFA" opacity="1.000000" stroke="none" 
	d="
M138.531342,1.000000 
	C130.010727,5.088715 127.506477,12.386621 127.994301,21.725248 
	C128.462234,30.682993 128.115662,39.684448 128.087967,48.666576 
	C128.062805,56.832508 123.783287,63.647770 118.649117,63.790096 
	C113.618881,63.929543 109.022835,56.862347 109.001785,48.863670 
	C108.973778,38.218155 109.085861,27.571363 108.956612,16.927320 
	C108.855804,8.625556 105.183647,3.947299 97.184479,1.304162 
	C110.687561,1.000000 124.375122,1.000000 138.531342,1.000000 
z"/>
<path fill="#050505" opacity="1.000000" stroke="none" 
	d="
M68.468658,181.000000 
	C67.899086,180.698318 67.875084,180.195969 67.686279,180.123596 
	C55.894196,175.603378 53.386429,166.037308 53.844452,154.817596 
	C53.938881,152.504562 53.860310,150.184479 53.900948,147.396179 
	C60.710747,146.967056 67.481079,147.009415 74.648315,146.776581 
	C75.045219,151.443176 75.045219,156.384964 75.045219,161.807495 
	C82.839127,161.807495 89.741905,161.807495 97.231491,161.807495 
	C97.231491,168.224472 97.231491,174.156113 97.115746,180.543884 
	C87.645775,181.000000 78.291542,181.000000 68.468658,181.000000 
z"/>
<path fill="#292929" opacity="1.000000" stroke="none" 
	d="
M62.583336,1.000000 
	C62.679462,6.527924 62.358925,12.055848 62.038387,17.583771 
	C61.695641,17.875254 61.352894,18.166735 61.010147,18.458216 
	C60.123158,17.376217 58.549763,16.341986 58.470551,15.203773 
	C58.162910,10.783120 58.330124,6.329420 58.160297,1.444010 
	C59.388889,1.000000 60.777779,1.000000 62.583336,1.000000 
z"/>
<path fill="#272727" opacity="1.000000" stroke="none" 
	d="
M70.600006,1.000000 
	C70.935593,5.623178 70.992714,10.253620 70.717163,14.864179 
	C70.652199,15.951137 69.466492,16.971109 68.796349,18.021896 
	C68.152908,16.955395 67.007233,15.912998 66.954689,14.818136 
	C66.748955,10.531604 66.888443,6.228500 66.949829,1.465777 
	C68.066673,1.000000 69.133339,1.000000 70.600006,1.000000 
z"/>
<path fill="#A9A9A9" opacity="1.000000" stroke="none" 
	d="
M75.364975,15.700188 
	C74.682976,11.313930 74.273033,6.618700 73.931549,1.461735 
	C74.444443,1.000000 74.888893,1.000000 75.666672,1.000000 
	C75.879013,5.797072 75.758026,10.594144 75.364975,15.700188 
z"/>
<path fill="#090909" opacity="1.000000" stroke="none" 
	d="
M75.714172,146.440247 
	C76.067017,146.222153 76.380836,146.353546 76.842712,146.698669 
	C76.552223,146.871506 76.113686,146.830627 75.714172,146.440247 
z"/>
<path fill="#090909" opacity="1.000000" stroke="none" 
	d="
M86.812569,129.938705 
	C86.392075,125.375092 86.318863,120.641464 86.006790,115.497421 
	C86.477997,115.616089 87.809296,116.155823 87.800430,116.672577 
	C87.725540,121.040329 87.405945,125.403877 86.812569,129.938705 
z"/>
<path fill="#0C0C0C" opacity="1.000000" stroke="none" 
	d="
M61.845184,58.258583 
	C64.385231,54.794186 67.705956,52.991272 71.139175,54.797771 
	C73.591812,56.088306 76.488647,59.079376 76.655678,61.487255 
	C76.840279,64.148415 74.786926,68.091949 72.500420,69.463783 
	C70.430496,70.705673 66.213493,70.126778 63.874298,68.758698 
	C60.169647,66.592033 59.811157,62.573669 61.845184,58.258583 
z"/>
</svg>